<svg width="284" height="70" viewBox="0 0 284 70" fill="none" xmlns="http://www.w3.org/2000/svg">
<g filter="url(#filter0_dd_11_28)">
<path d="M33.608 15.2C33.6933 16.6507 33.736 18.016 33.736 19.296C33.736 21.7707 33.5867 23.9893 33.288 25.952C31.88 25.696 30.7707 25.568 29.96 25.568L26.952 25.504C25.8427 25.504 25.288 25.568 25.288 25.696C25.2027 26.2933 25.16 27.552 25.16 29.472C25.16 33.2267 25.3093 43.3387 25.608 59.808C24.3707 60.0213 22.92 60.128 21.256 60.128H19.4C17.2667 60.128 15.304 60.2773 13.512 60.576C13.384 60.3627 13.2773 59.936 13.192 59.296C13.1493 58.6133 13.1493 57.9947 13.192 57.44V54.304L13.256 48.544C13.256 40.7787 13.0853 33.2053 12.744 25.824C12.2747 25.6107 11.6133 25.504 10.76 25.504L8.2 25.568C6.74933 25.568 5.704 25.4613 5.064 25.248C4.936 24.992 4.82933 24.288 4.744 23.136C4.65867 21.984 4.616 20.6827 4.616 19.232C4.616 17.0987 4.63733 15.5627 4.68 14.624H7.432L9.928 14.56H13.512L17.224 14.496C23.5813 14.496 28.7653 14.7307 32.776 15.2H33.608ZM62.692 60.192C61.3267 60.4907 59.8547 60.64 58.276 60.64C56.3987 60.64 54.3507 60.4053 52.132 59.936C51.8333 59.1253 51.364 57.4187 50.724 54.816C50.084 52.1707 49.572 50.4213 49.188 49.568L47.908 49.504L46.82 49.568C46.6493 50.08 46.372 51.3387 45.988 53.344C45.6893 55.008 45.3907 56.3733 45.092 57.44C44.7933 58.464 44.3667 59.4027 43.812 60.256C43.3853 60.3413 42.7453 60.384 41.892 60.384C41.508 60.384 40.676 60.3413 39.396 60.256C35.684 60.0853 33.6147 60 33.188 60C33.188 59.7867 33.2307 59.296 33.316 58.528C33.4013 57.7173 33.5293 56.8213 33.7 55.84L35.108 47.776C36.2173 41.1627 37.2627 35.4027 38.244 30.496C39.268 25.5893 40.5907 20.4053 42.212 14.944C42.8093 14.8587 43.62 14.816 44.644 14.816H45.028C47.8013 14.816 50.5107 14.7093 53.156 14.496C53.668 16.5013 54.1373 18.4853 54.564 20.448C54.9907 22.368 55.3747 24.096 55.716 25.632C57.0813 31.5627 57.9987 35.5093 58.468 37.472L62.692 60.192ZM49.316 41.376C48.3773 32.8427 47.9293 28.576 47.972 28.576L47.908 27.936C47.908 27.936 47.8653 28.448 47.78 29.472C47.652 32.672 47.46 35.2107 47.204 37.088L46.628 41.376H49.316ZM90.698 38.624C92.3193 40.672 93.514 42.3787 94.282 43.744C95.05 45.0667 95.434 46.624 95.434 48.416C95.434 49.1413 95.37 49.9307 95.242 50.784C94.5593 54.5813 92.7887 57.184 89.93 58.592C87.0713 59.9573 83.402 60.64 78.922 60.64C77.5993 60.64 73.4607 60.384 66.506 59.872C66.378 56.672 66.314 51.552 66.314 44.512C66.314 36.8747 66.3353 29.984 66.378 23.84V15.52C70.1327 14.4533 73.738 13.92 77.194 13.92C82.0153 13.92 85.962 14.9867 89.034 17.12C92.1487 19.2107 93.706 22.6667 93.706 27.488C93.706 30.6027 92.618 33.9947 90.442 37.664V37.6C90.3567 37.7707 90.314 37.8987 90.314 37.984C90.314 38.112 90.442 38.304 90.698 38.56V38.624ZM83.594 27.488C82.954 26.2933 82.1433 25.568 81.162 25.312C80.4793 25.2267 79.946 25.184 79.562 25.184C78.4527 25.0987 77.6207 24.992 77.066 24.864C77.194 25.5893 77.258 26.6987 77.258 28.192V30.496C77.258 31.5627 77.2793 32.3947 77.322 32.992H79.178C81.0553 32.992 82.3353 32.352 83.018 31.072C83.5727 30.048 83.85 29.216 83.85 28.576C83.85 28.192 83.7647 27.8293 83.594 27.488ZM83.594 47.136C83.594 46.4107 83.466 45.6213 83.21 44.768V44.832C82.9967 44.3627 82.698 43.936 82.314 43.552C81.93 43.168 81.546 42.9333 81.162 42.848C80.4793 42.6773 79.4767 42.5493 78.154 42.464C78.026 42.464 77.8767 42.4853 77.706 42.528C77.578 42.528 77.4287 42.5067 77.258 42.464C76.8313 44.256 76.618 45.8133 76.618 47.136C76.618 48.672 76.8527 49.8667 77.322 50.72C78.858 50.7627 80.0527 50.72 80.906 50.592C81.802 50.4213 82.5487 49.9733 83.146 49.248C83.4447 48.8213 83.594 48.1173 83.594 47.136ZM129.326 16.864C129.539 21.4293 129.646 25.6533 129.646 29.536C129.646 36.9173 129.283 43.872 128.558 50.4C128.217 53.344 127.022 55.8187 124.974 57.824C122.969 59.7867 120.366 60.9173 117.166 61.216H117.23C116.462 61.3013 115.758 61.344 115.118 61.344C112.601 61.344 110.19 60.9387 107.886 60.128C105.582 59.36 103.662 58.1653 102.126 56.544C100.633 54.9227 99.8433 52.9387 99.758 50.592C99.758 47.4773 99.8007 42.8053 99.886 36.576L99.95 32.416C100.035 27.8933 100.078 24.544 100.078 22.368C100.078 19.552 100.057 17.4827 100.014 16.16H101.614L105.454 16.032C107.545 16.032 109.379 16.2667 110.958 16.736C110.787 21.5147 110.702 25.184 110.702 27.744C110.702 33.9307 110.979 40.7787 111.534 48.288V48.224C111.79 49.0773 112.174 49.7387 112.686 50.208C113.198 50.6347 113.753 50.848 114.35 50.848C115.033 50.848 115.673 50.5707 116.27 50.016C116.867 49.4613 117.273 48.7573 117.486 47.904V47.968C117.657 44.0427 117.785 37.8347 117.87 29.344L117.934 25.248C117.934 23.2 117.977 20.384 118.062 16.8L119.406 16.608C120.003 16.608 120.814 16.544 121.838 16.416C123.587 16.2453 124.633 16.1813 124.974 16.224C126.809 16.224 128.089 16.4373 128.814 16.864H129.326ZM156.583 43.616C156.028 43.7013 154.641 43.8507 152.423 44.064C151.996 44.1067 151.484 44.1493 150.887 44.192C150.289 44.192 149.692 44.256 149.095 44.384L148.647 57.952V60.192C146.855 60.4053 144.252 60.512 140.839 60.512C137.895 60.512 136.124 60.2987 135.527 59.872L135.591 49.44V41.056C135.633 36.576 135.655 28.32 135.655 16.288C137.489 15.9893 140.135 15.712 143.591 15.456C147.089 15.2 150.439 15.072 153.639 15.072C158.887 15.072 163.068 15.456 166.183 16.224V17.44C166.183 17.6107 166.183 17.9733 166.183 18.528C166.225 19.04 166.268 20.2133 166.311 22.048C166.311 23.5413 166.268 24.8853 166.183 26.08L161.511 26.336L159.143 26.464L157.991 26.528L154.535 26.72C152.103 26.8053 150.268 26.912 149.031 27.04L148.839 27.488C148.711 27.872 148.647 28.4267 148.647 29.152C148.647 29.8347 148.689 30.5173 148.775 31.2C148.86 31.84 148.945 32.224 149.031 32.352C150.097 32.48 151.121 32.544 152.103 32.544C154.065 32.544 155.793 32.4373 157.287 32.224C157.5 32.6933 157.607 33.5893 157.607 34.912V36.192L157.543 37.728L157.479 38.944V40.16C157.479 41.056 157.521 42.0587 157.607 43.168C157.607 43.3813 157.265 43.5307 156.583 43.616ZM186.833 7.84C184.444 9.84533 183.014 11.3173 182.545 12.256C181.649 12.384 180.326 12.448 178.577 12.448C177.382 12.448 176.145 12.384 174.865 12.256C173.628 12.128 172.689 11.9787 172.049 11.808C173.073 10.9547 174.502 9.54666 176.337 7.584C179.494 4.34133 181.99 1.97333 183.825 0.479996L189.009 5.92L186.833 7.84ZM193.617 60.192C192.252 60.4907 190.78 60.64 189.201 60.64C187.324 60.64 185.276 60.4053 183.057 59.936C182.758 59.1253 182.289 57.4187 181.649 54.816C181.009 52.1707 180.497 50.4213 180.113 49.568L178.833 49.504L177.745 49.568C177.574 50.08 177.297 51.3387 176.913 53.344C176.614 55.008 176.316 56.3733 176.017 57.44C175.718 58.464 175.292 59.4027 174.737 60.256C174.31 60.3413 173.67 60.384 172.817 60.384C172.433 60.384 171.601 60.3413 170.321 60.256C166.609 60.0853 164.54 60 164.113 60C164.113 59.7867 164.156 59.296 164.241 58.528C164.326 57.7173 164.454 56.8213 164.625 55.84L166.033 47.776C167.142 41.1627 168.188 35.4027 169.169 30.496C170.193 25.5893 171.516 20.4053 173.137 14.944C173.734 14.8587 174.545 14.816 175.569 14.816H175.953C178.726 14.816 181.436 14.7093 184.081 14.496C184.593 16.5013 185.062 18.4853 185.489 20.448C185.916 22.368 186.3 24.096 186.641 25.632C188.006 31.5627 188.924 35.5093 189.393 37.472L193.617 60.192ZM180.241 41.376C179.302 32.8427 178.854 28.576 178.897 28.576L178.833 27.936C178.833 27.936 178.79 28.448 178.705 29.472C178.577 32.672 178.385 35.2107 178.129 37.088L177.553 41.376H180.241ZM208.004 26.016C207.919 26.1867 207.812 27.5307 207.684 30.048C207.556 32.5653 207.492 35.1253 207.492 37.728C207.492 40.3733 207.556 42.592 207.684 44.384C207.812 45.536 208.154 46.6667 208.708 47.776C209.263 48.8427 209.924 49.568 210.692 49.952C212.186 50.0373 213.316 49.3547 214.084 47.904H214.02C214.404 47.0933 214.596 45.8773 214.596 44.256C214.596 42.976 214.682 41.9733 214.852 41.248C215.919 41.4187 216.943 41.504 217.924 41.504L220.868 41.44C222.404 41.44 223.855 41.6107 225.22 41.952C225.732 43.4453 225.988 45.0027 225.988 46.624C225.988 49.056 225.37 51.36 224.132 53.536C222.938 55.712 221.274 57.4827 219.14 58.848C217.007 60.2133 214.639 60.9387 212.036 61.024C211.268 61.152 210.372 61.216 209.348 61.216C206.02 61.216 203.098 60.4693 200.58 58.976C198.063 57.4827 196.655 55.2427 196.356 52.256C196.143 47.9893 196.036 43.4027 196.036 38.496C196.036 34.4427 196.058 31.1147 196.1 28.512L196.164 25.632C196.122 24.992 196.164 24.2667 196.292 23.456C196.463 22.6027 196.676 21.856 196.932 21.216C197.316 20.2347 197.807 19.2533 198.404 18.272C199.044 17.2907 199.706 16.48 200.388 15.84C201.284 15.1147 202.607 14.496 204.356 13.984C206.02 13.472 207.748 13.216 209.54 13.216C212.442 13.216 215.172 13.8987 217.732 15.264C220.292 16.5867 222.34 18.4213 223.876 20.768C225.412 23.072 226.18 25.5893 226.18 28.32C226.18 29.9413 225.882 31.5627 225.284 33.184C223.492 33.568 221.999 33.76 220.804 33.76C219.183 33.76 216.943 33.4827 214.084 32.928L213.892 30.496C213.807 28.5333 213.551 27.0613 213.124 26.08C212.74 25.056 211.887 24.5653 210.564 24.608C210.522 24.608 210.458 24.6293 210.372 24.672C210.33 24.672 210.244 24.672 210.116 24.672H210.18C208.858 24.8853 208.132 25.3333 208.004 26.016ZM244.63 15.264C244.63 20.256 244.566 25.2907 244.438 30.368C244.268 37.1093 244.182 42.4213 244.182 46.304C244.182 50.784 244.31 55.2427 244.566 59.68C243.926 60.32 242.262 60.64 239.574 60.64C238.038 60.64 236.908 60.6187 236.182 60.576L235.414 60.512L234.262 60.448C233.409 60.448 232.321 60.6187 230.998 60.96C231.254 57.248 231.382 53.3013 231.382 49.12C231.382 47.456 231.34 45.0027 231.254 41.76L231.19 38.048C231.02 33.5253 230.934 29.856 230.934 27.04C230.934 22.816 231.126 18.656 231.51 14.56C232.065 14.4747 232.662 14.432 233.302 14.432C233.644 14.432 234.113 14.4747 234.71 14.56C235.308 14.6027 236.012 14.6027 236.822 14.56C239.041 14.688 240.812 14.7307 242.134 14.688H244.63V15.264ZM279.56 55.392C279.602 55.904 279.624 56.6507 279.624 57.632C279.624 58.528 279.538 59.168 279.368 59.552C279.24 59.8933 279.026 60.1067 278.728 60.192C278.429 60.2773 277.917 60.32 277.192 60.32H276.744L275.72 60.256L274.056 60.32C271.41 60.4053 267.506 60.448 262.344 60.448C257.437 60.448 253.533 60.4267 250.632 60.384V58.912C250.93 51.872 251.08 44.7893 251.08 37.664C251.08 35.5733 251.037 31.968 250.952 26.848V25.312V22.944C250.909 22.2187 250.888 20.9173 250.888 19.04L250.824 14.88C251.421 14.6667 252.253 14.496 253.32 14.368C254.386 14.1973 255.453 14.112 256.52 14.112C257.714 14.112 258.909 14.1973 260.104 14.368C261.298 14.5387 262.258 14.7733 262.984 15.072C262.898 18.144 262.856 20.5973 262.856 22.432C262.856 24.992 262.898 28.832 262.984 33.952C263.026 36.512 263.048 40.288 263.048 45.28V49.44C264.456 49.44 266.184 49.504 268.232 49.632L271.624 49.76C273.416 49.888 275.101 49.952 276.68 49.952C277.789 49.952 278.77 49.9093 279.624 49.824C279.624 50.8053 279.602 51.4453 279.56 51.744V51.68C279.474 52.832 279.453 53.664 279.496 54.176L279.56 55.392Z" fill="#F2E41D"/>
</g>
<defs>
<filter id="filter0_dd_11_28" x="0.615997" y="0.480011" width="283.008" height="68.864" filterUnits="userSpaceOnUse" color-interpolation-filters="sRGB">
<feFlood flood-opacity="0" result="BackgroundImageFix"/>
<feColorMatrix in="SourceAlpha" type="matrix" values="0 0 0 0 0 0 0 0 0 0 0 0 0 0 0 0 0 0 127 0" result="hardAlpha"/>
<feOffset dy="4"/>
<feGaussianBlur stdDeviation="2"/>
<feComposite in2="hardAlpha" operator="out"/>
<feColorMatrix type="matrix" values="0 0 0 0 0 0 0 0 0 0 0 0 0 0 0 0 0 0 0.1 0"/>
<feBlend mode="normal" in2="BackgroundImageFix" result="effect1_dropShadow_11_28"/>
<feColorMatrix in="SourceAlpha" type="matrix" values="0 0 0 0 0 0 0 0 0 0 0 0 0 0 0 0 0 0 127 0" result="hardAlpha"/>
<feOffset dy="4"/>
<feGaussianBlur stdDeviation="2"/>
<feComposite in2="hardAlpha" operator="out"/>
<feColorMatrix type="matrix" values="0 0 0 0 0 0 0 0 0 0 0 0 0 0 0 0 0 0 0.25 0"/>
<feBlend mode="normal" in2="effect1_dropShadow_11_28" result="effect2_dropShadow_11_28"/>
<feBlend mode="normal" in="SourceGraphic" in2="effect2_dropShadow_11_28" result="shape"/>
</filter>
</defs>
</svg>
